# xmcd
#
# Track frame offsets:
#	187
#	23567
#	46345
#	85155
#	101337
#	138135
#	145982
#	157385
#	165662
#	176770
#	205962
#
# Disc length: 3267 seconds
#
# Revision: 1
# Processed by: cddbd v1.5.1PL0 Copyright (c) Steve Scherf et al.
# Submitted via: CDex 1.50Beta5
#
DISCID=900cc10b
DTITLE=高嶋みどり作品集 - 日本合唱曲全集 高嶋みどり作品集
DYEAR=1900
DGENRE=Other
TTITLE0=山梨大学合唱団/「誰かが時を・・・」
TTITLE1=山梨大学合唱団/「誰かが時を・・・」
TTITLE2=山梨大学合唱団/「誰かが時を・・・」
TTITLE3=山梨大学合唱団/あらゆる草の葉には
TTITLE4=クロスロード・レディース・アンサンブル/あなたが歌えと命じる時に
TTITLE5=京都産業大学グリークラブ/「青いメッセージ」月蝕と花火序詞
TTITLE6=京都産業大学グリークラブ/「青いメッセージ」青イ花
TTITLE7=京都産業大学グリークラブ/「青いメッセージ」婆さん蛙ミミミの挨拶
TTITLE8=京都産業大学グリークラブ/「青いメッセージ」秋の夜の会話
TTITLE9=京都産業大学グリークラブ/「青いメッセージ」サリム自伝
TTITLE10=京都産業大学グリークラブ/「青いメッセージ」ごびらっふの独白
EXTD=
EXTT0=
EXTT1=
EXTT2=
EXTT3=
EXTT4=
EXTT5=
EXTT6=
EXTT7=
EXTT8=
EXTT9=
EXTT10=
PLAYORDER=
